<svg width="42" height="42" viewBox="0 0 42 42" fill="none" xmlns="http://www.w3.org/2000/svg">
<path fill-rule="evenodd" clip-rule="evenodd" d="M36.75 12.25C36.75 16.116 33.616 19.25 29.75 19.25C25.884 19.25 22.75 16.116 22.75 12.25C22.75 8.384 25.884 5.25 29.75 5.25C33.616 5.25 36.75 8.384 36.75 12.25ZM33.497 13.1116C33.3888 13.5826 32.9192 13.8766 32.4482 13.7683L26.6595 12.4375C26.1886 12.3293 25.8946 11.8597 26.0028 11.3887C26.1111 10.9178 26.5807 10.6237 27.0516 10.732L32.8403 12.0628C33.3112 12.1711 33.6053 12.6407 33.497 13.1116Z" fill="#0033AE"/>
<path d="M14.6809 8.08952C14.1144 6.74918 12.2196 6.61399 11.4586 7.85958L5.50621 17.6005C4.81958 18.7241 5.58729 20.1587 6.92641 20.2542L17.3095 20.9951C18.6486 21.0907 19.6228 19.7804 19.1118 18.5713L14.6809 8.08952Z" fill="#0033AE"/>
<path fill-rule="evenodd" clip-rule="evenodd" d="M30.9618 31.8143C33.5896 30.5889 34.7266 27.4653 33.5012 24.8374C32.2758 22.2096 29.1522 21.0727 26.5244 22.2981L17.0081 26.7355C14.3802 27.961 13.2434 31.0845 14.4687 33.7124C15.6941 36.3402 18.8177 37.4772 21.4456 36.2518L30.9618 31.8143ZM26.1998 32.1039L30.2222 30.2283C31.9741 29.4114 32.7321 27.3289 31.9152 25.577C31.0983 23.8251 29.0158 23.0672 27.2639 23.8841L23.2415 25.7597L26.1998 32.1039Z" fill="#0033AE"/>
</svg>
